<?xml version="1.0" encoding="UTF-8"?>
<svg version="1.1" xmlns="http://www.w3.org/2000/svg" width="259" height="194">
<path d="M0 0 C85.47 0 170.94 0 259 0 C259 64.02 259 128.04 259 194 C173.53 194 88.06 194 0 194 C0 129.98 0 65.96 0 0 Z " fill="#FEFEFE" transform="translate(0,0)"/>
<path d="M0 0 C3.60480601 2.9848148 5.23200187 6.06498442 5.96484375 10.67578125 C6.34010458 18.22790538 3.86916836 23.85812063 -0.22265625 30.06640625 C-8.59575887 38.67874037 -18.57920492 41.86656019 -30.41015625 42.31640625 C-30.38695313 43.00605469 -30.36375 43.69570312 -30.33984375 44.40625 C-30.23423731 49.90532836 -30.53441276 54.78511158 -31.90625 60.109375 C-32.61322913 63.20583396 -32.84321895 66.30506998 -33.06640625 69.46875 C-33.41015625 71.31640625 -33.41015625 71.31640625 -35.41015625 73.31640625 C-35.26880898 70.42029081 -35.12224095 67.52459815 -34.97265625 64.62890625 C-34.93333984 63.81228516 -34.89402344 62.99566406 -34.85351562 62.15429688 C-34.64012611 58.09989605 -34.23930464 54.29631854 -33.41015625 50.31640625 C-33.34556583 48.54662864 -33.3240456 46.77470473 -33.34765625 45.00390625 C-33.35667969 44.12089844 -33.36570312 43.23789063 -33.375 42.328125 C-33.38660156 41.66425781 -33.39820312 41.00039062 -33.41015625 40.31640625 C-32.75015625 40.31640625 -32.09015625 40.31640625 -31.41015625 40.31640625 C-31.32378906 39.41921875 -31.23742187 38.52203125 -31.1484375 37.59765625 C-30.32815809 30.31297307 -29.09351287 23.44982956 -26.91015625 16.44140625 C-26.58978394 15.39823242 -26.58978394 15.39823242 -26.26293945 14.33398438 C-25.71094427 12.63867687 -25.06794789 10.9735352 -24.41015625 9.31640625 C-23.75015625 8.98640625 -23.09015625 8.65640625 -22.41015625 8.31640625 C-23.19503274 12.52603525 -23.98925281 16.73384932 -24.78515625 20.94140625 C-25.11773437 22.72611328 -25.11773437 22.72611328 -25.45703125 24.546875 C-25.67617187 25.70058594 -25.8953125 26.85429688 -26.12109375 28.04296875 C-26.32009277 29.10080566 -26.5190918 30.15864258 -26.72412109 31.24853516 C-27.42029538 34.3617473 -28.35008588 37.30958955 -29.41015625 40.31640625 C-17.45884702 37.79061409 -7.59668104 34.71690463 -0.41015625 24.31640625 C2.54491116 19.07354471 3.57057621 14.24391013 2.58984375 8.31640625 C0.5162362 4.24324855 -1.14758951 1.93299193 -5.41015625 0.31640625 C-15.77373092 -0.97904058 -23.60537708 0.40339279 -32.41015625 6.31640625 C-33.4113037 7.31525749 -34.41166114 8.31490362 -35.41015625 9.31640625 C-36.07015625 9.31640625 -36.73015625 9.31640625 -37.41015625 9.31640625 C-37.41015625 9.97640625 -37.41015625 10.63640625 -37.41015625 11.31640625 C-38.07015625 11.31640625 -38.73015625 11.31640625 -39.41015625 11.31640625 C-39.68601562 11.8784375 -39.961875 12.44046875 -40.24609375 13.01953125 C-41.03083028 14.56793755 -41.84963795 16.09948273 -42.69921875 17.61328125 C-45.73704196 23.19150633 -47.25734719 26.96247417 -46.41015625 33.31640625 C-45.0109068 36.61741756 -45.0109068 36.61741756 -43.41015625 39.31640625 C-43.41015625 39.97640625 -43.41015625 40.63640625 -43.41015625 41.31640625 C-45.87815672 40.1646727 -47.4579919 39.2685706 -49.41015625 37.31640625 C-50.52749649 28.46001467 -49.83362741 21.47138139 -44.41015625 14.31640625 C-43.95253906 13.6925 -43.49492188 13.06859375 -43.0234375 12.42578125 C-33.42694792 0.33157521 -14.70226197 -8.9208228 0 0 Z " fill="#1C1C1C" transform="translate(94.41015625,83.68359375)"/>
<path d="M0 0 C0.66 0 1.32 0 2 0 C1.31684454 4.33838933 0.47661079 8.63014572 -0.40966797 12.93017578 C-3.43322132 26.36893439 -3.43322132 26.36893439 -5 40 C-4.34 40.66 -3.68 41.32 -3 42 C-4.98 42.495 -4.98 42.495 -7 43 C-6.67 45.64 -6.34 48.28 -6 51 C-7.485 51.495 -7.485 51.495 -9 52 C-9 49.69 -9 47.38 -9 45 C-9.99 45.433125 -10.98 45.86625 -12 46.3125 C-13.33301794 46.87574702 -14.66636947 47.43820498 -16 48 C-16.64839844 48.28617188 -17.29679687 48.57234375 -17.96484375 48.8671875 C-22.86080148 50.90313032 -26.70361588 51.28373486 -32 51 C-32 48.36 -32 45.72 -32 43 C-30.515 42.505 -30.515 42.505 -29 42 C-29.33 44.64 -29.66 47.28 -30 50 C-29.10692139 49.68192383 -29.10692139 49.68192383 -28.19580078 49.35742188 C-25.50667264 48.40170752 -22.81586995 47.45079852 -20.125 46.5 C-19.18785156 46.16613281 -18.25070313 45.83226562 -17.28515625 45.48828125 C-16.38925781 45.17246094 -15.49335937 44.85664062 -14.5703125 44.53125 C-13.74289551 44.23798828 -12.91547852 43.94472656 -12.06298828 43.64257812 C-10 43 -10 43 -8 43 C-7.95101562 41.91460937 -7.90203125 40.82921875 -7.8515625 39.7109375 C-7.77648014 38.26560216 -7.70093472 36.82029081 -7.625 35.375 C-7.57859375 34.30572266 -7.57859375 34.30572266 -7.53125 33.21484375 C-7.28801062 28.79599503 -6.4891391 25.19925815 -5 21 C-4.64519013 18.88165366 -4.33335281 16.7557088 -4.0625 14.625 C-3.30659346 9.34574875 -2.10801793 4.88676883 0 0 Z " fill="#3C3C3C" transform="translate(136,78)"/>
<path d="M0 0 C0.66 0.33 1.32 0.66 2 1 C-23.63748708 19.6150646 -23.63748708 19.6150646 -32 19 C-32.33 18.67 -32.66 18.34 -33 18 C-32.91036938 16.30858344 -32.75422324 14.62040398 -32.5625 12.9375 C-32.46066406 12.01839844 -32.35882813 11.09929687 -32.25390625 10.15234375 C-32.17011719 9.44207031 -32.08632812 8.73179688 -32 8 C-33.98 9.98 -35.96 11.96 -38 14 C-38.66 13.67 -39.32 13.34 -40 13 C-36.37 9.37 -32.74 5.74 -29 2 C-28.34 2.33 -27.68 2.66 -27 3 C-27.474375 4.175625 -27.94875 5.35125 -28.4375 6.5625 C-29.88806847 10.40103259 -30.57577103 13.92740191 -31 18 C-22.75532158 15.22745327 -16.0971977 10.95948755 -9 6 C-7.2530471 4.82877557 -5.50338039 3.6615801 -3.75 2.5 C-3.02296875 2.0153125 -2.2959375 1.530625 -1.546875 1.03125 C-0.78117187 0.52078125 -0.78117187 0.52078125 0 0 Z " fill="#292929" transform="translate(204,116)"/>
<path d="M0 0 C6.81715829 -0.50290512 12.4360071 -0.32042767 18 4 C21.30020212 7.51462203 22.26382087 11.12189493 22.5 15.875 C22.18753221 23.20683339 19.10243252 29.73811647 14 35 C11.75 36.3125 11.75 36.3125 10 37 C10 33.46249971 10.46774398 33.19174106 12.8125 30.75 C17.50700987 25.44509286 19.6420665 20.24072131 19.33984375 13.14453125 C18.7675849 9.53338055 17.50453716 7.62976402 15 5 C10.30041061 2.40044404 5.28366361 1.55038163 0 1 C0 0.67 0 0.34 0 0 Z " fill="#222222" transform="translate(78,81)"/>
<path d="M0 0 C-0.433125 1.0209375 -0.433125 1.0209375 -0.875 2.0625 C-2.12597355 5.32893093 -3.07447955 8.62846123 -4 12 C-3.34 12.33 -2.68 12.66 -2 13 C-3.32 13 -4.64 13 -6 13 C-5.67 10.36 -5.34 7.72 -5 5 C-7.76041673 5.92013891 -9.67065828 6.98692912 -12.125 8.5 C-16.55012449 10.99863821 -20.86428372 12.42345229 -26 12 C-26.66 11.34 -27.32 10.68 -28 10 C-28 9.01 -28 8.02 -28 7 C-28.94875 7.515625 -29.8975 8.03125 -30.875 8.5625 C-31.90625 9.036875 -32.9375 9.51125 -34 10 C-34.66 9.67 -35.32 9.34 -36 9 C-34.90241493 8.15801693 -33.79664683 7.32669329 -32.6875 6.5 C-32.07261719 6.0359375 -31.45773438 5.571875 -30.82421875 5.09375 C-29 4 -29 4 -26 4 C-26 5.98 -26 7.96 -26 10 C-18.799241 8.98936716 -13.31265724 6.2685232 -7.05444336 2.74414062 C-2.17100595 0 -2.17100595 0 0 0 Z " fill="#212121" transform="translate(166,118)"/>
<path d="M0 0 C0.33 0.66 0.66 1.32 1 2 C0.00390625 4.1015625 0.00390625 4.1015625 -1.4375 6.625 C-3.98486096 11.54942481 -4.7332237 14.50082225 -4 20 C-2.60075055 23.30101131 -2.60075055 23.30101131 -1 26 C-1 26.66 -1 27.32 -1 28 C-3.46800047 26.84826645 -5.04783565 25.95216435 -7 24 C-8.00300686 16.04985092 -7.60641444 9.40371407 -3.2890625 2.57421875 C-2 1 -2 1 0 0 Z " fill="#151515" transform="translate(52,97)"/>
<path d="M0 0 C0.66 0 1.32 0 2 0 C1.67 2.64 1.34 5.28 1 8 C7.93 5.69 14.86 3.38 22 1 C22.33 2.65 22.66 4.3 23 6 C22.67 5.01 22.34 4.02 22 3 C21.01 3.433125 20.02 3.86625 19 4.3125 C17.66698206 4.87574702 16.33363053 5.43820498 15 6 C14.35160156 6.28617187 13.70320313 6.57234375 13.03515625 6.8671875 C8.13919852 8.90313032 4.29638412 9.28373486 -1 9 C-1.09765625 2.84765625 -1.09765625 2.84765625 -1 1 C-0.67 0.67 -0.34 0.34 0 0 Z " fill="#3F3F3F" transform="translate(105,120)"/>
<path d="M0 0 C1.4709442 2.94188841 0.47945878 4.78092497 -0.3125 7.9375 C-1.76704271 13.92914843 -2.96486982 19.92317695 -4 26 C-4.33 26 -4.66 26 -5 26 C-7.09910359 16.95770763 -4.15916009 9.45125628 -1 1 C-0.67 0.67 -0.34 0.34 0 0 Z " fill="#464646" transform="translate(71,92)"/>
<path d="M0 0 C0.33 0 0.66 0 1 0 C0.4321484 5.48923214 -0.22180242 10.96551296 -0.9375 16.4375 C-1.09089844 17.63246094 -1.24429688 18.82742187 -1.40234375 20.05859375 C-2 23 -2 23 -4 25 C-3.85865273 22.10388456 -3.7120847 19.2081919 -3.5625 16.3125 C-3.52318359 15.49587891 -3.48386719 14.67925781 -3.44335938 13.83789062 C-2.86588542 2.86588542 -2.86588542 2.86588542 0 0 Z " fill="#323232" transform="translate(63,132)"/>
<path d="M0 0 C0.33 0 0.66 0 1 0 C1 2.64 1 5.28 1 8 C1.99 8.33 2.98 8.66 4 9 C2.68 9.33 1.36 9.66 0 10 C0.33 12.64 0.66 15.28 1 18 C0.01 18.33 -0.98 18.66 -2 19 C-2.21432579 12.35590042 -1.51233701 6.46794133 0 0 Z " fill="#262626" transform="translate(129,111)"/>
<path d="M0 0 C0 1.98 0 3.96 0 6 C1.32 6.33 2.64 6.66 4 7 C2.125 7.625 2.125 7.625 0 8 C-0.66 7.34 -1.32 6.68 -2 6 C-2 5.01 -2 4.02 -2 3 C-2.94875 3.515625 -3.8975 4.03125 -4.875 4.5625 C-5.90625 5.036875 -6.9375 5.51125 -8 6 C-8.66 5.67 -9.32 5.34 -10 5 C-8.90241493 4.15801693 -7.79664683 3.32669329 -6.6875 2.5 C-6.07261719 2.0359375 -5.45773438 1.571875 -4.82421875 1.09375 C-3 0 -3 0 0 0 Z " fill="#393939" transform="translate(140,122)"/>
<path d="M0 0 C0 0.33 0 0.66 0 1 C-0.70125 1.03738281 -1.4025 1.07476562 -2.125 1.11328125 C-8.32251602 1.54272869 -13.30009796 2.52645761 -19 5 C-19.66 4.34 -20.32 3.68 -21 3 C-13.59081641 -0.28201479 -8.00857985 -1.59824153 0 0 Z " fill="#474747" transform="translate(85,82)"/>
<path d="M0 0 C-1.01176437 3.40320742 -1.64843582 4.75725331 -4.625 6.8125 C-5.40875 7.204375 -6.1925 7.59625 -7 8 C-7 5 -7 5 -4.625 2.3125 C-2 0 -2 0 0 0 Z " fill="#202020" transform="translate(95,110)"/>
<path d="M0 0 C1.77706209 2.66559313 2.87548273 5.0280615 4 8 C1.37812506 6.95125002 0.20628639 6.35068687 -1.25 3.875 C-1.4975 3.25625 -1.745 2.6375 -2 2 C-1.34 2 -0.68 2 0 2 C0 1.34 0 0.68 0 0 Z " fill="#2C2C2C" transform="translate(47,117)"/>
<path d="M0 0 C0.66 0 1.32 0 2 0 C1.51421457 3.12290635 1.0013988 5.99580359 0 9 C-0.66 9 -1.32 9 -2 9 C-1.34 6.03 -0.68 3.06 0 0 Z " fill="#111111" transform="translate(136,78)"/>
<path d="M0 0 C0.66 0.66 1.32 1.32 2 2 C1.625 4.625 1.625 4.625 1 7 C1.66 7.33 2.32 7.66 3 8 C1.68 8 0.36 8 -1 8 C-0.67 5.36 -0.34 2.72 0 0 Z " fill="#383838" transform="translate(161,123)"/>
<path d="M0 0 C0.66 0.33 1.32 0.66 2 1 C2 3.64 2 6.28 2 9 C1.01 9.33 0.02 9.66 -1 10 C-1.02689216 8.52093108 -1.04634621 7.04172517 -1.0625 5.5625 C-1.07410156 4.73878906 -1.08570312 3.91507812 -1.09765625 3.06640625 C-1 1 -1 1 0 0 Z " fill="#030303" transform="translate(128,120)"/>
</svg>
